# xmcd CD database file
#
# Track frame offsets:
#	150
#	25860
#	46070
#	66495
#	87835
#	110722
#	135525
#	154912
#	179167
#	200455
#	225092
#	252855
#	273345
#
# Disc length: 3950 seconds
#
# Revision: 10
# Processed by: cddbd v1.5.1PL0 Copyright (c) Steve Scherf et al.
# Submitted via: CDex 1.51
#
DISCID=b00f6c0d
DTITLE=聖飢魔II - 愛と虐殺の日々 -  歴代小教典大全 [CD1 of 2)
DYEAR=1991
DGENRE=Heavy Metal
TTITLE0=蝋人形の館
TTITLE1=JACK THE RIPPER
TTITLE2=アダムの林檎
TTITLE3=悪夢の叫び
TTITLE4=EL・DO・RA・DO
TTITLE5=BURNING BLOOD
TTITLE6=1999 SECRET OBJECT
TTITLE7=地獄への階段 (完結編)
TTITLE8=STAINLESS NIGHT
TTITLE9=SCHWARZ KASTELL
TTITLE10=WINNER!
TTITLE11=害獣達の墓場
TTITLE12=白い奇蹟
EXTD=YEAR: 1991
EXTT0=
EXTT1=
EXTT2=
EXTT3=
EXTT4=
EXTT5=
EXTT6=
EXTT7=
EXTT8=
EXTT9=
EXTT10=
EXTT11=
EXTT12=
PLAYORDER=
